<?xml version="1.0" standalone="no"?>
<!DOCTYPE svg PUBLIC "-//W3C//DTD SVG 20010904//EN"
 "http://www.w3.org/TR/2001/REC-SVG-20010904/DTD/svg10.dtd">
<svg version="1.0" xmlns="http://www.w3.org/2000/svg"
 width="300.000000pt" height="300.000000pt" viewBox="0 0 300.000000 300.000000"
 preserveAspectRatio="xMidYMid meet">
<metadata>
Created by potrace 1.10, written by Peter Selinger 2001-2011
</metadata>
<g transform="translate(0.000000,300.000000) scale(0.100000,-0.100000)"
fill="#fff" stroke="none">
<path d="M1395 2469 c-222 -29 -429 -130 -585 -288 -66 -67 -155 -183 -155
-203 0 -4 -7 -16 -15 -26 -8 -10 -16 -25 -18 -33 -2 -7 -8 -17 -13 -20 -6 -3
-9 -10 -8 -15 1 -5 0 -16 -4 -24 -40 -104 -67 -214 -59 -242 4 -15 2 -19 -7
-13 -10 6 -11 3 -2 -12 6 -11 8 -23 4 -26 -9 -9 -3 -195 7 -222 6 -16 5 -25
-3 -29 -9 -3 -9 -5 1 -5 6 -1 12 -9 12 -18 0 -25 43 -157 52 -161 4 -2 8 -12
8 -23 0 -10 5 -19 10 -19 6 0 10 -8 10 -17 0 -50 237 -343 277 -343 7 0 16 -6
20 -13 19 -30 193 -124 221 -119 6 2 12 -1 12 -6 0 -18 206 -68 241 -59 10 3
21 1 24 -3 3 -5 14 -7 25 -5 11 2 20 -1 20 -6 0 -6 5 -7 12 -3 7 4 43 9 82 10
75 4 215 31 231 45 5 5 15 9 23 9 27 0 137 54 221 107 46 30 117 88 157 129
69 70 154 184 154 206 0 5 11 24 25 42 14 18 22 36 18 40 -4 4 -2 10 4 14 14
9 60 163 69 231 13 89 9 292 -6 331 -1 3 -2 9 -1 13 3 17 -42 153 -56 168 -8
9 -13 20 -11 25 6 21 -95 194 -113 194 -5 0 -8 3 -6 8 1 4 -32 42 -73 86 -76
79 -228 190 -278 203 -15 3 -33 13 -41 20 -7 8 -19 12 -27 9 -7 -3 -14 -1 -16
4 -4 13 -163 52 -222 55 -28 1 -58 5 -67 9 -8 4 -28 2 -42 -3 -17 -7 -27 -7
-27 -1 0 6 -3 9 -7 9 -5 -1 -39 -6 -78 -10z m304 -55 c332 -68 604 -322 708
-661 24 -80 27 -102 27 -253 0 -151 -3 -172 -28 -254 -102 -334 -347 -571
-681 -657 -122 -32 -331 -32 -446 -1 -463 125 -759 545 -709 1005 41 373 290
683 640 795 163 52 318 60 489 26z"/>
<path d="M997 2113 c-2 -5 -4 -42 -3 -83 l1 -75 42 -3 c36 -3 44 1 59 22 14
23 15 28 2 49 -11 16 -12 26 -5 39 16 25 -17 58 -59 58 -18 0 -35 -3 -37 -7z
m78 -38 c0 -15 -8 -21 -32 -23 -30 -3 -33 -1 -33 23 0 24 3 26 33 23 24 -2 32
-8 32 -23z m10 -75 c0 -22 -5 -25 -37 -28 -36 -3 -38 -2 -38 28 0 30 2 31 38
28 32 -3 37 -6 37 -28z"/>
<path d="M1140 2035 c0 -50 4 -85 10 -85 6 0 10 18 10 40 l0 40 49 0 50 0 4
-42 c2 -24 4 -2 4 47 0 50 -2 71 -4 48 l-4 -43 -50 0 -49 0 0 40 c0 22 -4 40
-10 40 -6 0 -10 -35 -10 -85z"/>
<path d="M1338 2052 c-40 -97 -41 -102 -30 -102 5 0 12 9 15 20 4 16 14 20 47
20 33 0 43 -4 47 -20 5 -19 23 -29 23 -13 0 13 -65 163 -70 163 -3 0 -17 -30
-32 -68z m45 11 c2 -10 8 -26 12 -35 6 -15 2 -18 -25 -18 -27 0 -31 3 -25 18
4 9 10 25 12 35 3 9 9 17 13 17 4 0 10 -8 13 -17z"/>
<path d="M1460 2052 c0 -77 16 -102 63 -102 47 0 67 31 67 105 0 37 -4 65 -10
65 -6 0 -10 -28 -10 -62 0 -78 -8 -90 -51 -86 l-34 3 -3 73 c-4 92 -22 95 -22
4z"/>
<path d="M1630 2035 c0 -50 4 -85 10 -85 6 0 10 26 10 58 l1 57 31 -60 31 -59
33 64 33 65 1 -62 c0 -35 4 -63 10 -63 7 0 7 133 0 170 -1 3 -18 -28 -39 -69
l-38 -73 -34 70 c-19 40 -37 72 -41 72 -5 0 -8 -38 -8 -85z"/>
<path d="M1840 2036 c0 -51 4 -86 10 -86 6 0 10 33 10 79 0 44 -4 83 -10 86
-6 4 -10 -25 -10 -79z"/>
<path d="M1900 2035 c0 -59 3 -84 11 -79 6 3 8 16 5 28 -3 11 -1 28 5 36 8 13
13 11 27 -9 32 -47 50 -66 56 -60 3 3 -8 25 -25 48 l-32 42 33 34 c17 18 27
35 22 39 -5 3 -26 -12 -46 -34 -20 -22 -39 -40 -42 -40 -3 0 -3 15 0 34 4 20
2 37 -4 41 -6 4 -10 -23 -10 -80z"/>
<path d="M720 1773 c-31 -102 -43 -206 -36 -328 7 -135 43 -285 68 -285 6 0 7
8 3 18 -66 154 -72 431 -14 600 22 64 22 62 9 62 -5 0 -19 -30 -30 -67z"/>
<path d="M2250 1836 c0 -2 7 -23 16 -47 58 -162 58 -412 0 -579 -8 -24 -13
-47 -10 -49 20 -20 64 157 71 283 3 61 1 136 -6 186 -14 96 -48 210 -61 210
-6 0 -10 -2 -10 -4z"/>
<path d="M1355 1736 l-140 -82 -3 -164 -2 -165 146 -84 c113 -65 150 -82 163
-75 9 6 73 43 144 83 l127 73 0 167 0 166 -143 83 c-79 45 -146 82 -148 81 -2
0 -67 -38 -144 -83z m285 -20 l125 -74 2 -154 3 -153 -134 -76 -134 -77 -131
76 -131 76 0 155 0 156 128 72 c70 40 132 73 137 73 6 -1 66 -34 135 -74z"/>
<path d="M1375 1701 l-120 -68 0 -144 0 -143 118 -68 c66 -37 124 -68 129 -68
6 0 64 30 129 68 l119 67 -2 145 -3 145 -115 67 c-63 37 -119 67 -125 68 -5 0
-64 -31 -130 -69z m263 -31 l93 -53 -3 -130 -3 -129 -111 -64 -111 -64 -114
65 -114 64 5 132 5 131 110 64 c97 56 112 62 130 50 11 -7 62 -36 113 -66z"/>
<path d="M1492 1494 c-22 -82 -30 -130 -24 -136 11 -11 11 -12 47 127 14 55
28 108 31 118 3 10 0 17 -8 17 -9 0 -25 -44 -46 -126z"/>
<path d="M1390 1535 l-44 -45 46 -47 c26 -26 51 -44 54 -40 4 4 -10 26 -32 48
l-39 40 38 36 c23 20 35 39 30 44 -5 5 -27 -10 -53 -36z"/>
<path d="M1556 1573 c-3 -4 10 -24 31 -45 l37 -38 -38 -39 c-26 -27 -34 -41
-26 -46 8 -5 30 10 58 39 l46 46 -44 45 c-45 46 -52 50 -64 38z"/>
<path d="M1386 990 c9 -52 16 -58 30 -25 11 26 13 27 14 8 0 -31 17 -37 24 -9
3 13 9 32 13 42 4 12 3 15 -5 10 -7 -4 -12 -17 -13 -29 -1 -19 -2 -18 -14 8
l-13 30 -8 -29 -7 -29 -13 29 -14 29 6 -35z"/>
<path d="M1482 983 c3 -34 6 -38 33 -40 20 -1 23 0 8 4 -27 5 -30 30 -5 36 16
4 16 5 0 6 -26 2 -22 19 5 24 15 3 12 5 -11 6 -32 1 -33 0 -30 -36z"/>
<path d="M1560 980 c0 -36 3 -40 24 -40 28 0 34 11 28 52 -3 22 -10 28 -28 28
-21 0 -24 -5 -24 -40z"/>
<path d="M1070 870 c0 -33 3 -40 19 -40 22 0 51 25 51 44 0 19 -22 36 -47 36
-20 0 -23 -5 -23 -40z m53 16 c7 -17 -18 -54 -29 -43 -4 4 -8 18 -9 32 -1 28
29 36 38 11z"/>
<path d="M1152 873 c3 -34 6 -38 33 -40 20 -1 23 0 8 4 -27 5 -30 30 -5 36 16
4 16 5 0 6 -26 2 -22 19 5 24 15 3 12 5 -11 6 -32 1 -33 0 -30 -36z"/>
<path d="M1235 873 c21 -51 23 -51 40 -8 9 20 14 40 11 42 -3 3 -11 -7 -17
-23 l-12 -29 -10 28 c-6 15 -15 27 -19 27 -5 0 -1 -17 7 -37z"/>
<path d="M1310 870 c0 -37 2 -40 28 -39 23 2 24 2 5 6 -27 5 -31 30 -5 36 16
4 16 5 0 6 -26 2 -22 19 5 24 19 4 18 4 -5 6 -26 1 -28 -2 -28 -39z"/>
<path d="M1381 873 c-1 -41 1 -43 27 -42 23 0 24 1 7 8 -12 5 -22 21 -26 42
-6 34 -6 33 -8 -8z"/>
<path d="M1451 896 c-16 -19 -11 -46 12 -60 25 -16 52 4 52 40 0 24 -5 30 -26
32 -14 2 -31 -4 -38 -12z m57 -22 c4 -26 -26 -40 -45 -21 -8 7 -11 21 -7 31 9
24 48 17 52 -10z"/>
<path d="M1541 868 c1 -24 3 -36 6 -27 2 10 13 19 24 22 11 3 19 14 19 26 0
16 -6 21 -25 21 -23 0 -25 -4 -24 -42z"/>
<path d="M1612 870 c0 -27 3 -35 5 -20 l5 24 13 -24 13 -25 14 30 13 29 6 -30
c6 -24 7 -22 7 16 1 41 0 43 -13 26 -8 -10 -17 -24 -20 -30 -4 -8 -6 -8 -10 0
-3 6 -12 20 -20 30 -13 17 -14 15 -13 -26z"/>
<path d="M1710 870 c0 -39 1 -40 33 -39 29 1 29 2 8 8 -33 9 -38 28 -9 34 l23
4 -22 2 c-32 2 -29 19 5 24 25 4 25 4 -5 6 -32 1 -33 0 -33 -39z"/>
<path d="M1792 870 c1 -32 2 -37 5 -16 l5 29 23 -29 24 -29 -1 45 c-1 32 -2
37 -5 16 l-5 -29 -23 29 -24 29 1 -45z"/>
<path d="M1878 903 c6 -2 12 -20 12 -39 0 -22 4 -33 11 -29 6 4 7 19 4 35 -5
22 -2 29 12 33 10 3 2 5 -17 5 -19 0 -29 -2 -22 -5z"/>
</g>
</svg>
